<svg width="15" height="19" viewBox="0 0 15 19" fill="none" xmlns="http://www.w3.org/2000/svg">
<path d="M8.68 9.32C9.26667 9.61333 9.86667 9.92 10.48 10.24C11.12 10.5333 11.7067 10.8267 12.24 11.12C12.8 11.3867 13.28 11.64 13.68 11.88C14.1067 12.0933 14.4 12.24 14.56 12.32V18.52C14.56 18.8133 14.4267 18.96 14.16 18.96C14 18.96 13.7467 18.8667 13.4 18.68C13.08 18.4933 12.7467 18.2533 12.4 17.96C12.08 17.64 11.7867 17.28 11.52 16.88C11.28 16.48 11.16 16.0667 11.16 15.64V11.92L7.72 10.04L4.28 11.92V15.64C4.28 16.0667 4.14667 16.48 3.88 16.88C3.64 17.28 3.34667 17.64 3 17.96C2.68 18.2533 2.34667 18.4933 2 18.68C1.68 18.8667 1.44 18.96 1.28 18.96C1.01333 18.96 0.88 18.8133 0.88 18.52V12.32C1.04 12.24 1.32 12.0933 1.72 11.88C2.14667 11.64 2.62667 11.3867 3.16 11.12C3.72 10.8267 4.30667 10.5333 4.92 10.24C5.56 9.92 6.17333 9.61333 6.76 9.32C6.22667 9.02667 5.68 8.74667 5.12 8.48C4.56 8.18667 4.04 7.92 3.56 7.68C3.08 7.44 2.65333 7.22667 2.28 7.04C1.93333 6.85333 1.68 6.72 1.52 6.64V0.479999C1.52 0.159999 1.65333 -9.53674e-07 1.92 -9.53674e-07C2.08 -9.53674e-07 2.32 0.0933324 2.64 0.279999C2.98667 0.466666 3.32 0.719999 3.64 1.04C3.98667 1.33333 4.28 1.68 4.52 2.08C4.78667 2.48 4.92 2.89333 4.92 3.32V7.04L7.72 8.6L10.52 7.04V3.32C10.52 2.89333 10.64 2.48 10.88 2.08C11.1467 1.68 11.44 1.33333 11.76 1.04C12.1067 0.719999 12.44 0.466666 12.76 0.279999C13.1067 0.0933324 13.36 -9.53674e-07 13.52 -9.53674e-07C13.7867 -9.53674e-07 13.92 0.159999 13.92 0.479999V6.64C13.76 6.72 13.5067 6.85333 13.16 7.04C12.8133 7.22667 12.4 7.44 11.92 7.68C11.44 7.92 10.92 8.18667 10.36 8.48C9.8 8.74667 9.24 9.02667 8.68 9.32Z" fill="#5DBE74"/>
</svg>
