<svg width="85" height="52" viewBox="0 0 85 52" fill="none" xmlns="http://www.w3.org/2000/svg">
<path d="M27.7812 38.3438C26.8021 38.3438 25.9427 38.1719 25.2031 37.8281C24.474 37.474 23.8906 37.1615 23.4531 36.8906L23.0781 38H20.9062V14.4844H23.8438V22.2188C24.375 21.9167 25.0417 21.6615 25.8438 21.4531C26.6458 21.2344 27.4896 21.125 28.375 21.125C30.4167 21.125 31.9479 21.6302 32.9688 22.6406C33.9896 23.651 34.5 24.9375 34.5 26.5V32.5C34.5 33.6042 34.2396 34.599 33.7188 35.4844C33.1979 36.3698 32.4375 37.0677 31.4375 37.5781C30.4375 38.0885 29.2188 38.3438 27.7812 38.3438ZM27.3438 36.0312C28.5 36.0312 29.4896 35.75 30.3125 35.1875C31.1458 34.6146 31.5625 33.8229 31.5625 32.8125V26.2812C31.5625 25.2917 31.2396 24.5625 30.5938 24.0938C29.9583 23.6146 29.099 23.375 28.0156 23.375C27.3281 23.375 26.599 23.4844 25.8281 23.7031C25.0573 23.9219 24.3958 24.1562 23.8438 24.4062V35.0625C24.2708 35.3021 24.7865 35.526 25.3906 35.7344C25.9948 35.9323 26.6458 36.0312 27.3438 36.0312ZM39.8438 44.3438V42.0469C41 42.0469 41.9427 41.8125 42.6719 41.3438C43.401 40.875 44.0156 40.0417 44.5156 38.8438L44.8125 38.1406L37.9375 21.4375H40.9688L46.1094 34.6562L50.375 21.4375H53.3125L47 39.5312C46.4375 41.1458 45.6198 42.349 44.5469 43.1406C43.474 43.9427 41.9062 44.3438 39.8438 44.3438ZM58.2344 33.2656V23.6562H55.4688V21.4375H58.3438L58.7031 16.3125H61.1719V21.4375H65.3281V23.6562H61.1719V33.0781C61.1719 34.1719 61.4948 34.875 62.1406 35.1875C62.7865 35.5 63.8073 35.6562 65.2031 35.6562H65.5312L65.2188 38.125H64.7812C62.5208 38.125 60.8646 37.7708 59.8125 37.0625C58.7604 36.3542 58.2344 35.0885 58.2344 33.2656ZM69.5312 32.1562V26.3906C69.5312 24.8281 70.0677 23.5625 71.1406 22.5938C72.2135 21.6146 73.9375 21.125 76.3125 21.125C78.5833 21.125 80.2552 21.5729 81.3281 22.4688C82.401 23.3542 82.9375 24.5833 82.9375 26.1562V30.0938H72.4688V32.4219C72.4688 33.7656 72.7344 34.7135 73.2656 35.2656C73.8073 35.8177 74.8594 36.0938 76.4219 36.0938C77.349 36.0938 78.0781 36.0625 78.6094 36C79.151 35.9271 79.5469 35.7188 79.7969 35.375C80.0573 35.0208 80.2292 34.4271 80.3125 33.5938H82.9062C82.7708 34.8958 82.4844 35.8906 82.0469 36.5781C81.6198 37.2552 80.9583 37.7188 80.0625 37.9688C79.1667 38.2188 77.9531 38.3438 76.4219 38.3438C73.9531 38.3438 72.1875 37.8281 71.125 36.7969C70.0625 35.7656 69.5312 34.2188 69.5312 32.1562ZM80.0938 28.1094V25.8438C80.0938 24.8438 79.7448 24.1823 79.0469 23.8594C78.3594 23.5365 77.4479 23.375 76.3125 23.375C75.1458 23.375 74.2135 23.5781 73.5156 23.9844C72.8177 24.3906 72.4688 25.1042 72.4688 26.125V28.1094H80.0938Z" fill="black"/>
<path d="M8.68 26.32C9.26667 26.6133 9.86667 26.92 10.48 27.24C11.12 27.5333 11.7067 27.8267 12.24 28.12C12.8 28.3867 13.28 28.64 13.68 28.88C14.1067 29.0933 14.4 29.24 14.56 29.32V35.52C14.56 35.8133 14.4267 35.96 14.16 35.96C14 35.96 13.7467 35.8667 13.4 35.68C13.08 35.4933 12.7467 35.2533 12.4 34.96C12.08 34.64 11.7867 34.28 11.52 33.88C11.28 33.48 11.16 33.0667 11.16 32.64V28.92L7.72 27.04L4.28 28.92V32.64C4.28 33.0667 4.14667 33.48 3.88 33.88C3.64 34.28 3.34667 34.64 3 34.96C2.68 35.2533 2.34667 35.4933 2 35.68C1.68 35.8667 1.44 35.96 1.28 35.96C1.01333 35.96 0.88 35.8133 0.88 35.52V29.32C1.04 29.24 1.32 29.0933 1.72 28.88C2.14667 28.64 2.62667 28.3867 3.16 28.12C3.72 27.8267 4.30667 27.5333 4.92 27.24C5.56 26.92 6.17333 26.6133 6.76 26.32C6.22667 26.0267 5.68 25.7467 5.12 25.48C4.56 25.1867 4.04 24.92 3.56 24.68C3.08 24.44 2.65333 24.2267 2.28 24.04C1.93333 23.8533 1.68 23.72 1.52 23.64V17.48C1.52 17.16 1.65333 17 1.92 17C2.08 17 2.32 17.0933 2.64 17.28C2.98667 17.4667 3.32 17.72 3.64 18.04C3.98667 18.3333 4.28 18.68 4.52 19.08C4.78667 19.48 4.92 19.8933 4.92 20.32V24.04L7.72 25.6L10.52 24.04V20.32C10.52 19.8933 10.64 19.48 10.88 19.08C11.1467 18.68 11.44 18.3333 11.76 18.04C12.1067 17.72 12.44 17.4667 12.76 17.28C13.1067 17.0933 13.36 17 13.52 17C13.7867 17 13.92 17.16 13.92 17.48V23.64C13.76 23.72 13.5067 23.8533 13.16 24.04C12.8133 24.2267 12.4 24.44 11.92 24.68C11.44 24.92 10.92 25.1867 10.36 25.48C9.8 25.7467 9.24 26.0267 8.68 26.32Z" fill="#5DBE74"/>
</svg>
